<svg width="512" height="512" viewBox="0 0 512 512" fill="none" xmlns="http://www.w3.org/2000/svg">
  <defs>
    <linearGradient id="bg" x1="48" y1="32" x2="464" y2="480" gradientUnits="userSpaceOnUse">
      <stop offset="0" stop-color="#0A1126"/>
      <stop offset="0.52" stop-color="#1C1C52"/>
      <stop offset="1" stop-color="#0A132D"/>
    </linearGradient>
    <radialGradient id="halo" cx="0" cy="0" r="1" gradientUnits="userSpaceOnUse" gradientTransform="translate(256 254) rotate(90) scale(210)">
      <stop offset="0" stop-color="#00E7FF" stop-opacity="0.45"/>
      <stop offset="0.62" stop-color="#6E5BFF" stop-opacity="0.28"/>
      <stop offset="1" stop-color="#000000" stop-opacity="0"/>
    </radialGradient>
    <linearGradient id="neon" x1="134" y1="95" x2="380" y2="390" gradientUnits="userSpaceOnUse">
      <stop offset="0" stop-color="#77F7FF"/>
      <stop offset="0.5" stop-color="#74B2FF"/>
      <stop offset="1" stop-color="#B685FF"/>
    </linearGradient>
    <filter id="glow" x="76" y="52" width="360" height="402" filterUnits="userSpaceOnUse" color-interpolation-filters="sRGB">
      <feFlood flood-opacity="0" result="BackgroundImageFix"/>
      <feBlend mode="normal" in="SourceGraphic" in2="BackgroundImageFix" result="shape"/>
      <feGaussianBlur stdDeviation="9" result="effect1_foregroundBlur"/>
    </filter>
  </defs>

  <rect width="512" height="512" rx="120" fill="url(#bg)"/>
  <rect width="512" height="512" rx="120" fill="url(#halo)"/>

  <g filter="url(#glow)" stroke="url(#neon)" stroke-width="16" stroke-linecap="round" stroke-linejoin="round">
    <path d="M164 192L182 130L228 165"/>
    <path d="M348 192L330 130L284 165"/>
    <path d="M120 278C120 210 174 158 242 158H270C338 158 392 210 392 278V302C392 374 334 432 262 432H250C178 432 120 374 120 302V278Z"/>
    <path d="M198 288C198 272 210 260 226 260C242 260 254 272 254 288"/>
    <path d="M258 288C258 272 270 260 286 260C302 260 314 272 314 288"/>
    <path d="M216 338C226 360 245 372 256 372C267 372 286 360 296 338"/>
    <circle cx="212" cy="294" r="5" fill="#8BF9FF" stroke="none"/>
    <circle cx="300" cy="294" r="5" fill="#8BF9FF" stroke="none"/>
  </g>
</svg>
